%TF.GenerationSoftware,KiCad,Pcbnew,(6.0.0)*%
%TF.CreationDate,2022-01-03T15:46:07-05:00*%
%TF.ProjectId,LMX2332V01,4c4d5832-3333-4325-9630-312e6b696361,rev?*%
%TF.SameCoordinates,Original*%
%TF.FileFunction,Paste,Top*%
%TF.FilePolarity,Positive*%
%FSLAX46Y46*%
G04 Gerber Fmt 4.6, Leading zero omitted, Abs format (unit mm)*
G04 Created by KiCad (PCBNEW (6.0.0)) date 2022-01-03 15:46:07*
%MOMM*%
%LPD*%
G01*
G04 APERTURE LIST*
G04 Aperture macros list*
%AMRoundRect*
0 Rectangle with rounded corners*
0 $1 Rounding radius*
0 $2 $3 $4 $5 $6 $7 $8 $9 X,Y pos of 4 corners*
0 Add a 4 corners polygon primitive as box body*
4,1,4,$2,$3,$4,$5,$6,$7,$8,$9,$2,$3,0*
0 Add four circle primitives for the rounded corners*
1,1,$1+$1,$2,$3*
1,1,$1+$1,$4,$5*
1,1,$1+$1,$6,$7*
1,1,$1+$1,$8,$9*
0 Add four rect primitives between the rounded corners*
20,1,$1+$1,$2,$3,$4,$5,0*
20,1,$1+$1,$4,$5,$6,$7,0*
20,1,$1+$1,$6,$7,$8,$9,0*
20,1,$1+$1,$8,$9,$2,$3,0*%
%AMFreePoly0*
4,1,142,-1.737258,12.073282,-1.733976,12.073861,-1.731090,12.072195,-1.721348,12.070477,-1.706421,12.057951,-1.689547,12.048209,-1.687233,12.041850,-1.682048,12.037500,-1.678664,12.018309,-1.672000,12.000000,-1.672000,10.475000,2.178000,10.475000,2.178000,12.000000,2.179718,12.009742,2.179139,12.013024,2.180805,12.015910,2.182523,12.025652,2.195049,12.040579,2.204791,12.057453,2.211150,12.059767,
2.215500,12.064952,2.234691,12.068336,2.253000,12.075000,4.253000,12.075000,4.262742,12.073282,4.266024,12.073861,4.268910,12.072195,4.278652,12.070477,4.293579,12.057951,4.310453,12.048209,4.312767,12.041850,4.317952,12.037500,4.321336,12.018309,4.328000,12.000000,4.328000,7.500000,4.326282,7.490258,4.326861,7.486976,4.325195,7.484090,4.323477,7.474348,4.310951,7.459421,
4.301209,7.442547,4.294850,7.440233,4.290500,7.435048,4.271309,7.431664,4.253000,7.425000,2.928000,7.425000,2.928000,3.475000,4.253000,3.475000,4.262742,3.473282,4.266024,3.473861,4.268910,3.472195,4.278652,3.470477,4.293579,3.457951,4.310453,3.448209,4.312767,3.441850,4.317952,3.437500,4.321336,3.418309,4.328000,3.400000,4.328000,0.700000,4.326282,0.690258,
4.326861,0.686976,4.325195,0.684090,4.323477,0.674348,4.310951,0.659421,4.301209,0.642547,4.294850,0.640233,4.290500,0.635048,4.271309,0.631664,4.253000,0.625000,0.574852,0.625000,0.584580,0.615785,0.681346,0.468192,0.741562,0.302298,0.762000,0.127000,0.762000,-0.127000,0.756157,-0.221184,0.714209,-0.392612,0.633949,-0.549791,0.519683,-0.684292,0.377540,-0.788897,
0.215144,-0.857997,0.041208,-0.887885,-0.134939,-0.876957,-0.303847,-0.825800,-0.456456,-0.737157,-0.584580,-0.615785,-0.681346,-0.468192,-0.741562,-0.302298,-0.762000,-0.127000,-0.762000,0.127000,-0.756157,0.221184,-0.714209,0.392612,-0.633949,0.549791,-0.570055,0.625000,-7.047000,0.625000,-7.056742,0.626718,-7.060024,0.626139,-7.062910,0.627805,-7.072652,0.629523,-7.087579,0.642049,
-7.104453,0.651791,-7.106767,0.658150,-7.111952,0.662500,-7.115336,0.681691,-7.122000,0.700000,-7.122000,5.200000,-7.120282,5.209742,-7.120861,5.213024,-7.119195,5.215910,-7.117477,5.225652,-7.104951,5.240579,-7.095209,5.257453,-7.088850,5.259767,-7.084500,5.264952,-7.065309,5.268336,-7.047000,5.275000,-5.522000,5.275000,-5.522000,9.225000,-7.047000,9.225000,-7.056742,9.226718,
-7.060024,9.226139,-7.062910,9.227805,-7.072652,9.229523,-7.087579,9.242049,-7.104453,9.251791,-7.106767,9.258150,-7.111952,9.262500,-7.115336,9.281691,-7.122000,9.300000,-7.122000,12.000000,-7.120282,12.009742,-7.120861,12.013024,-7.119195,12.015910,-7.117477,12.025652,-7.104951,12.040579,-7.095209,12.057453,-7.088850,12.059767,-7.084500,12.064952,-7.065309,12.068336,-7.047000,12.075000,
-1.747000,12.075000,-1.737258,12.073282,-1.737258,12.073282,$1*%
G04 Aperture macros list end*
%ADD10R,1.450000X0.450000*%
%ADD11R,1.250000X1.500000*%
%ADD12R,1.500000X1.250000*%
%ADD13R,1.300000X1.500000*%
%ADD14R,1.500000X1.300000*%
%ADD15R,1.060000X0.650000*%
%ADD16RoundRect,0.250000X-0.450000X0.325000X-0.450000X-0.325000X0.450000X-0.325000X0.450000X0.325000X0*%
%ADD17R,1.200000X2.700000*%
%ADD18RoundRect,0.243750X-0.456250X0.243750X-0.456250X-0.243750X0.456250X-0.243750X0.456250X0.243750X0*%
%ADD19RoundRect,0.243750X0.243750X0.456250X-0.243750X0.456250X-0.243750X-0.456250X0.243750X-0.456250X0*%
%ADD20O,1.524000X1.778000*%
%ADD21O,1.778000X1.524000*%
%ADD22FreePoly0,90.000000*%
G04 APERTURE END LIST*
D10*
%TO.C,U2*%
X125320000Y-88515000D03*
X125320000Y-89165000D03*
X125320000Y-89815000D03*
X125320000Y-90465000D03*
X125320000Y-91115000D03*
X125320000Y-91765000D03*
X125320000Y-92415000D03*
X125320000Y-93065000D03*
X125320000Y-93715000D03*
X125320000Y-94365000D03*
X131220000Y-94365000D03*
X131220000Y-93715000D03*
X131220000Y-93065000D03*
X131220000Y-92415000D03*
X131220000Y-91765000D03*
X131220000Y-91115000D03*
X131220000Y-90465000D03*
X131220000Y-89815000D03*
X131220000Y-89165000D03*
X131220000Y-88515000D03*
%TD*%
D11*
%TO.C,C4*%
X120650000Y-92730000D03*
X120650000Y-95230000D03*
%TD*%
%TO.C,C5*%
X143510000Y-76220000D03*
X143510000Y-78720000D03*
%TD*%
%TO.C,C6*%
X142240000Y-68560000D03*
X142240000Y-66060000D03*
%TD*%
%TO.C,C7*%
X139700000Y-67290000D03*
X139700000Y-64790000D03*
%TD*%
%TO.C,C8*%
X138176000Y-102676000D03*
X138176000Y-100176000D03*
%TD*%
%TO.C,C9*%
X154940000Y-68560000D03*
X154940000Y-66060000D03*
%TD*%
%TO.C,C10*%
X135636000Y-103946000D03*
X135636000Y-101446000D03*
%TD*%
D12*
%TO.C,C11*%
X150408000Y-100584000D03*
X152908000Y-100584000D03*
%TD*%
%TO.C,C12*%
X123170000Y-85090000D03*
X120670000Y-85090000D03*
%TD*%
%TO.C,C13*%
X130830000Y-86360000D03*
X133330000Y-86360000D03*
%TD*%
%TO.C,C14*%
X123170000Y-87630000D03*
X120670000Y-87630000D03*
%TD*%
%TO.C,C15*%
X130810000Y-83820000D03*
X133310000Y-83820000D03*
%TD*%
D11*
%TO.C,C16*%
X123190000Y-95250000D03*
X123190000Y-97750000D03*
%TD*%
D13*
%TO.C,R1*%
X112248000Y-87630000D03*
X112248000Y-90330000D03*
%TD*%
%TO.C,R2*%
X112248000Y-92630000D03*
X112248000Y-95330000D03*
%TD*%
D14*
%TO.C,R3*%
X119460000Y-67310000D03*
X116760000Y-67310000D03*
%TD*%
D13*
%TO.C,R4*%
X119380000Y-62230000D03*
X119380000Y-64930000D03*
%TD*%
D14*
%TO.C,R5*%
X123110000Y-67310000D03*
X125810000Y-67310000D03*
%TD*%
%TO.C,R6*%
X137000000Y-88900000D03*
X139700000Y-88900000D03*
%TD*%
%TO.C,R7*%
X137080000Y-86360000D03*
X139780000Y-86360000D03*
%TD*%
%TO.C,R8*%
X137000000Y-83820000D03*
X139700000Y-83820000D03*
%TD*%
D13*
%TO.C,R9*%
X146050000Y-68660000D03*
X146050000Y-65960000D03*
%TD*%
%TO.C,R10*%
X141986000Y-102696000D03*
X141986000Y-99996000D03*
%TD*%
D14*
%TO.C,R11*%
X145970000Y-63500000D03*
X148670000Y-63500000D03*
%TD*%
%TO.C,R12*%
X141906000Y-97108000D03*
X144606000Y-97108000D03*
%TD*%
D13*
%TO.C,R13*%
X124968000Y-72357000D03*
X124968000Y-75057000D03*
%TD*%
D14*
%TO.C,R14*%
X128110000Y-76200000D03*
X130810000Y-76200000D03*
%TD*%
%TO.C,R15*%
X128110000Y-72390000D03*
X130810000Y-72390000D03*
%TD*%
%TO.C,R16*%
X125650000Y-97790000D03*
X128350000Y-97790000D03*
%TD*%
%TO.C,R17*%
X134540000Y-63500000D03*
X137240000Y-63500000D03*
%TD*%
%TO.C,R18*%
X137000000Y-106760000D03*
X139700000Y-106760000D03*
%TD*%
D15*
%TO.C,U4*%
X152230000Y-68260000D03*
X152230000Y-67310000D03*
X152230000Y-66360000D03*
X150030000Y-66360000D03*
X150030000Y-68260000D03*
%TD*%
%TO.C,U5*%
X147066000Y-101360000D03*
X147066000Y-100410000D03*
X147066000Y-99460000D03*
X144866000Y-99460000D03*
X144866000Y-101360000D03*
%TD*%
D16*
%TO.C,C1*%
X115570000Y-92955000D03*
X115570000Y-95005000D03*
%TD*%
D12*
%TO.C,C2*%
X112268000Y-97790000D03*
X114768000Y-97790000D03*
%TD*%
%TO.C,C3*%
X114340000Y-87630000D03*
X116840000Y-87630000D03*
%TD*%
%TO.C,FB1*%
X146090000Y-76200000D03*
X148590000Y-76200000D03*
%TD*%
D17*
%TO.C,U3*%
X124460000Y-100760000D03*
X116840000Y-100760000D03*
X124460000Y-110060000D03*
X116840000Y-110060000D03*
%TD*%
D13*
%TO.C,R19*%
X135890000Y-71040000D03*
X135890000Y-73740000D03*
%TD*%
D14*
%TO.C,R20*%
X131986000Y-103966000D03*
X129286000Y-103966000D03*
%TD*%
D18*
%TO.C,D1*%
X135890000Y-66372500D03*
X135890000Y-68247500D03*
%TD*%
D19*
%TO.C,D2*%
X134620000Y-106760000D03*
X132745000Y-106760000D03*
%TD*%
D20*
%TO.C,U1*%
X115189000Y-83566000D03*
X116967000Y-70866000D03*
D21*
X109728000Y-75565000D03*
X109728000Y-80645000D03*
X122428000Y-80899000D03*
X109728000Y-78105000D03*
D20*
X112649000Y-83566000D03*
X114427000Y-70866000D03*
D21*
X109728000Y-73025000D03*
D22*
X122428000Y-75819000D03*
D21*
X122428000Y-78359000D03*
D20*
X120269000Y-83566000D03*
X119507000Y-70866000D03*
X117729000Y-83566000D03*
D21*
X122428000Y-73279000D03*
D20*
X111887000Y-70866000D03*
%TD*%
M02*
