M48
; DRILL file {KiCad (6.0.0)} date Mon Jan  3 15:46:40 2022
; FORMAT={-:-/ absolute / metric / decimal}
; #@! TF.CreationDate,2022-01-03T15:46:40-05:00
; #@! TF.GenerationSoftware,Kicad,Pcbnew,(6.0.0)
; #@! TF.FileFunction,MixedPlating,1,2
FMAT,2
METRIC
; #@! TA.AperFunction,Plated,PTH,ViaDrill
T1C0.400
; #@! TA.AperFunction,Plated,PTH,ComponentDrill
T2C0.750
; #@! TA.AperFunction,Plated,PTH,ComponentDrill
T3C1.000
; #@! TA.AperFunction,Plated,PTH,ComponentDrill
T4C1.100
; #@! TA.AperFunction,Plated,PTH,ComponentDrill
T5C1.575
; #@! TA.AperFunction,Plated,PTH,ComponentDrill
T6C1.702
; #@! TA.AperFunction,Plated,PTH,ComponentDrill
T7C3.200
%
G90
G05
T1
X106.299Y-72.136
X106.299Y-82.296
X106.299Y-102.616
X106.864Y-100.216
X106.934Y-69.596
X106.934Y-79.756
X106.934Y-84.328
X106.934Y-85.344
X106.934Y-86.36
X106.934Y-87.376
X106.934Y-88.392
X106.934Y-89.408
X106.934Y-90.424
X106.934Y-91.44
X106.934Y-92.456
X106.934Y-93.472
X107.188Y-77.216
X107.48Y-82.296
X107.569Y-67.056
X108.204Y-64.516
X108.204Y-74.676
X108.204Y-80.01
X108.839Y-72.136
X108.839Y-102.616
X109.474Y-69.596
X109.474Y-95.504
X109.474Y-96.52
X109.474Y-97.536
X109.474Y-98.552
X109.728Y-85.852
X109.728Y-87.122
X109.728Y-88.392
X109.728Y-89.408
X109.728Y-90.424
X109.728Y-91.44
X109.728Y-92.456
X109.728Y-93.472
X109.728Y-94.488
X109.728Y-99.568
X110.109Y-67.056
X110.744Y-64.516
X110.744Y-84.836
X110.744Y-99.822
X111.379Y-72.136
X111.379Y-82.296
X111.379Y-102.616
X111.76Y-99.822
X112.014Y-59.436
X112.014Y-69.596
X112.649Y-56.896
X112.649Y-67.056
X112.649Y-77.216
X112.649Y-107.696
X112.776Y-99.822
X113.284Y-64.516
X113.284Y-74.676
X113.284Y-84.836
X113.284Y-105.156
X113.772Y-89.916
X113.792Y-94.996
X113.919Y-61.976
X113.919Y-72.136
X113.919Y-102.616
X114.554Y-59.436
X114.554Y-69.596
X114.554Y-89.916
X114.554Y-100.076
X115.189Y-56.896
X115.189Y-67.056
X115.189Y-77.216
X115.189Y-97.536
X115.189Y-107.696
X115.824Y-64.516
X115.824Y-74.676
X115.824Y-105.156
X116.459Y-61.976
X117.094Y-59.436
X117.729Y-56.896
X117.729Y-77.216
X117.729Y-97.536
X117.729Y-107.696
X118.335Y-103.28
X118.364Y-74.676
X118.364Y-94.996
X118.364Y-105.156
X118.696Y-84.665
X118.999Y-72.136
X118.999Y-82.296
X118.999Y-92.456
X119.634Y-69.596
X120.269Y-56.896
X120.269Y-77.216
X120.269Y-97.536
X120.269Y-107.696
X120.548Y-100.949
X120.65Y-102.616
X120.904Y-64.516
X120.904Y-74.676
X120.904Y-94.996
X120.904Y-105.156
X121.539Y-61.976
X121.539Y-72.136
X122.174Y-69.596
X122.174Y-100.035
X122.555Y-90.805
X122.809Y-77.216
X122.809Y-107.696
X122.936Y-92.456
X123.444Y-64.516
X123.444Y-74.676
X123.444Y-105.156
X123.698Y-88.9
X124.714Y-69.596
X124.845Y-79.887
X125.349Y-77.216
X125.349Y-107.696
X125.984Y-64.516
X125.984Y-105.156
X126.619Y-92.456
X126.746Y-74.168
X126.992Y-86.44
X127.0Y-78.232
X127.0Y-79.248
X127.0Y-80.518
X127.0Y-82.042
X127.0Y-83.312
X127.0Y-84.328
X127.0Y-85.344
X127.177Y-89.617
X127.254Y-69.596
X127.254Y-100.035
X127.889Y-67.056
X127.889Y-107.696
X128.524Y-64.516
X128.524Y-74.676
X128.524Y-93.345
X128.524Y-94.996
X129.159Y-90.424
X129.159Y-92.456
X129.54Y-78.232
X129.54Y-79.502
X129.54Y-80.772
X129.54Y-82.042
X129.794Y-69.596
X129.794Y-89.916
X129.794Y-100.076
X130.429Y-67.056
X130.429Y-97.536
X130.429Y-107.696
X131.064Y-64.516
X131.064Y-74.676
X131.699Y-61.976
X131.699Y-82.296
X131.699Y-102.616
X131.826Y-80.01
X132.334Y-59.436
X132.334Y-69.596
X132.334Y-100.076
X132.969Y-56.896
X132.969Y-67.056
X132.969Y-77.216
X133.604Y-74.676
X133.604Y-105.156
X134.112Y-90.17
X134.239Y-61.976
X134.239Y-72.136
X134.239Y-82.296
X134.239Y-102.616
X134.874Y-59.436
X134.874Y-69.596
X134.874Y-79.756
X134.874Y-100.076
X135.509Y-56.896
X135.509Y-97.536
X136.779Y-61.976
X136.779Y-82.296
X137.414Y-59.436
X137.414Y-69.596
X137.414Y-72.136
X137.414Y-79.756
X137.922Y-95.758
X138.049Y-56.896
X138.049Y-67.056
X138.049Y-77.216
X138.049Y-97.536
X138.049Y-108.458
X138.684Y-74.676
X138.684Y-105.156
X139.319Y-61.976
X139.319Y-82.296
X139.954Y-59.436
X139.954Y-69.596
X140.589Y-56.896
X140.589Y-77.216
X140.589Y-107.696
X141.224Y-64.516
X141.224Y-74.676
X141.224Y-84.836
X141.224Y-105.156
X141.859Y-61.976
X141.859Y-72.136
X141.859Y-82.296
X142.494Y-59.436
X142.494Y-70.358
X142.494Y-79.756
X142.494Y-86.868
X142.494Y-89.662
X142.748Y-84.582
X143.129Y-56.896
X143.129Y-107.696
X143.293Y-92.557
X143.764Y-64.516
X143.764Y-74.676
X143.764Y-94.996
X143.764Y-105.156
X143.996Y-79.77
X144.399Y-61.976
X144.399Y-72.136
X145.034Y-59.436
X145.034Y-70.104
X145.288Y-82.296
X145.288Y-84.836
X145.669Y-56.896
X145.669Y-107.696
X146.05Y-78.74
X146.05Y-97.536
X146.304Y-105.156
X146.939Y-61.976
X146.939Y-72.136
X146.939Y-102.616
X147.506Y-98.239
X147.574Y-59.436
X147.574Y-69.596
X147.874Y-90.132
X148.209Y-56.896
X148.209Y-67.056
X148.209Y-107.696
X148.336Y-100.33
X148.806Y-84.836
X148.806Y-93.218
X148.806Y-94.996
X148.844Y-65.024
X148.844Y-74.676
X148.844Y-105.156
X149.479Y-61.976
X149.479Y-102.616
X150.114Y-59.436
X150.114Y-69.596
X150.114Y-79.756
X150.368Y-98.552
X150.749Y-77.216
X151.13Y-67.31
X151.384Y-64.516
X151.384Y-74.676
X151.892Y-79.756
X152.019Y-61.976
X152.019Y-72.136
X152.019Y-82.296
X152.019Y-102.616
X153.289Y-97.536
X153.416Y-69.85
X153.924Y-64.516
X153.924Y-73.914
X154.432Y-98.552
X154.559Y-61.976
X154.559Y-72.136
X154.559Y-82.296
X154.559Y-102.616
X155.194Y-79.756
X155.194Y-100.076
X155.448Y-70.358
X155.702Y-94.996
X155.829Y-77.216
X155.829Y-97.536
X156.21Y-84.328
X156.464Y-64.516
X156.464Y-74.676
X157.099Y-61.976
X157.099Y-72.136
X157.099Y-82.296
X157.099Y-102.616
X157.226Y-67.056
X157.734Y-69.596
X157.734Y-100.076
T2
X153.924Y-84.582
X153.924Y-86.582
X153.924Y-88.582
X153.924Y-90.582
T3
X130.556Y-109.982
X132.08Y-97.79
X134.874Y-109.982
X139.192Y-78.994
X139.954Y-72.136
X145.796Y-86.36
X145.796Y-89.408
X145.796Y-92.71
T4
X153.67Y-76.2
X153.67Y-78.74
T5
X126.492Y-59.182
T6
X123.952Y-56.642
X123.952Y-61.722
X129.032Y-56.642
X129.032Y-61.722
T7
X107.95Y-57.15
X107.95Y-107.696
X154.432Y-57.15
X154.432Y-107.696
T0
M30
