%TF.GenerationSoftware,KiCad,Pcbnew,(6.0.0)*%
%TF.CreationDate,2022-01-03T16:02:36-05:00*%
%TF.ProjectId,LMX2332V01,4c4d5832-3333-4325-9630-312e6b696361,rev?*%
%TF.SameCoordinates,Original*%
%TF.FileFunction,Soldermask,Top*%
%TF.FilePolarity,Negative*%
%FSLAX46Y46*%
G04 Gerber Fmt 4.6, Leading zero omitted, Abs format (unit mm)*
G04 Created by KiCad (PCBNEW (6.0.0)) date 2022-01-03 16:02:36*
%MOMM*%
%LPD*%
G01*
G04 APERTURE LIST*
G04 Aperture macros list*
%AMRoundRect*
0 Rectangle with rounded corners*
0 $1 Rounding radius*
0 $2 $3 $4 $5 $6 $7 $8 $9 X,Y pos of 4 corners*
0 Add a 4 corners polygon primitive as box body*
4,1,4,$2,$3,$4,$5,$6,$7,$8,$9,$2,$3,0*
0 Add four circle primitives for the rounded corners*
1,1,$1+$1,$2,$3*
1,1,$1+$1,$4,$5*
1,1,$1+$1,$6,$7*
1,1,$1+$1,$8,$9*
0 Add four rect primitives between the rounded corners*
20,1,$1+$1,$2,$3,$4,$5,0*
20,1,$1+$1,$4,$5,$6,$7,0*
20,1,$1+$1,$6,$7,$8,$9,0*
20,1,$1+$1,$8,$9,$2,$3,0*%
%AMFreePoly0*
4,1,242,-1.738178,12.125028,-1.728436,12.123310,-1.728770,12.121415,-1.722602,12.120328,-1.722268,12.122223,-1.712526,12.120505,-1.688693,12.109391,-1.677171,12.099722,-1.664147,12.092203,-1.654480,12.080682,-1.649398,12.076418,-1.646077,12.070667,-1.641809,12.065580,-1.639541,12.059347,-1.632020,12.046322,-1.629408,12.031507,-1.624264,12.017375,-1.621200,12.000000,-1.621200,10.525800,2.127200,10.525800,
2.127200,12.000000,2.127972,12.008822,2.129690,12.018564,2.131585,12.018230,2.132672,12.024398,2.130777,12.024732,2.132495,12.034474,2.143609,12.058307,2.153278,12.069829,2.160797,12.082853,2.172318,12.092520,2.176582,12.097602,2.182333,12.100923,2.187420,12.105191,2.193653,12.107459,2.206678,12.114980,2.221493,12.117592,2.235625,12.122736,2.253000,12.125800,4.253000,12.125800,
4.261822,12.125028,4.271564,12.123310,4.271230,12.121415,4.277398,12.120328,4.277732,12.122223,4.287474,12.120505,4.311307,12.109391,4.322829,12.099722,4.335853,12.092203,4.345520,12.080682,4.350602,12.076418,4.353923,12.070667,4.358191,12.065580,4.360459,12.059347,4.367980,12.046322,4.370592,12.031507,4.375736,12.017375,4.378800,12.000000,4.378800,7.500000,4.378028,7.491178,
4.376310,7.481436,4.374415,7.481770,4.373328,7.475602,4.375223,7.475268,4.373505,7.465526,4.362391,7.441693,4.352722,7.430171,4.345203,7.417147,4.333682,7.407480,4.329418,7.402398,4.323667,7.399077,4.318580,7.394809,4.312347,7.392541,4.299322,7.385020,4.284507,7.382408,4.270375,7.377264,4.253000,7.374200,2.978800,7.374200,2.978800,3.525800,4.253000,3.525800,
4.261822,3.525028,4.271564,3.523310,4.271230,3.521415,4.277398,3.520328,4.277732,3.522223,4.287474,3.520505,4.311307,3.509391,4.322829,3.499722,4.335853,3.492203,4.345520,3.480682,4.350602,3.476418,4.353923,3.470667,4.358191,3.465580,4.360459,3.459347,4.367980,3.446322,4.370592,3.431507,4.375736,3.417375,4.378800,3.400000,4.378800,0.700000,4.378028,0.691178,
4.376310,0.681436,4.374415,0.681770,4.373328,0.675602,4.375223,0.675268,4.373505,0.665526,4.362391,0.641693,4.352722,0.630171,4.345203,0.617147,4.333682,0.607480,4.329418,0.602398,4.323667,0.599077,4.318580,0.594809,4.312347,0.592541,4.299322,0.585020,4.284507,0.582408,4.270375,0.577264,4.253000,0.574200,0.672588,0.574200,0.723829,0.496045,0.729098,0.485525,
0.789314,0.319631,0.792020,0.308181,0.812458,0.132883,0.812800,0.127000,0.812800,-0.127000,0.812703,-0.130145,0.806860,-0.224329,0.805501,-0.233258,0.763553,-0.404686,0.759452,-0.415714,0.679192,-0.572893,0.672664,-0.582682,0.558398,-0.717183,0.549793,-0.725207,0.407650,-0.829812,0.397430,-0.835641,0.235034,-0.904741,0.223747,-0.908063,0.049811,-0.937951,0.038062,-0.938588,
-0.138085,-0.927660,-0.149664,-0.925576,-0.318572,-0.874419,-0.329362,-0.869727,-0.481971,-0.781084,-0.491392,-0.774037,-0.619516,-0.652665,-0.627063,-0.643638,-0.723829,-0.496045,-0.729098,-0.485525,-0.789314,-0.319631,-0.792020,-0.308181,-0.812458,-0.132883,-0.812800,-0.127000,-0.812800,0.127000,-0.812703,0.130145,-0.806860,0.224329,-0.805501,0.233258,-0.763553,0.404686,-0.759452,0.415714,
-0.679192,0.572893,-0.678320,0.574200,-7.047000,0.574200,-7.055822,0.574972,-7.065564,0.576690,-7.065230,0.578585,-7.071398,0.579672,-7.071732,0.577777,-7.081474,0.579495,-7.105307,0.590609,-7.116829,0.600278,-7.129853,0.607797,-7.139520,0.619318,-7.144602,0.623582,-7.147923,0.629333,-7.152191,0.634420,-7.154459,0.640653,-7.161980,0.653678,-7.164592,0.668493,-7.169736,0.682625,
-7.172800,0.700000,-7.172800,5.200000,-7.172028,5.208822,-7.170310,5.218564,-7.168415,5.218230,-7.167328,5.224398,-7.169223,5.224732,-7.167505,5.234474,-7.156391,5.258307,-7.146722,5.269829,-7.139203,5.282853,-7.127682,5.292520,-7.123418,5.297602,-7.117667,5.300923,-7.112580,5.305191,-7.106347,5.307459,-7.093322,5.314980,-7.078507,5.317592,-7.064375,5.322736,-7.047000,5.325800,
-5.572800,5.325800,-5.572800,9.174200,-7.047000,9.174200,-7.055822,9.174972,-7.065564,9.176690,-7.065230,9.178585,-7.071398,9.179672,-7.071732,9.177777,-7.081474,9.179495,-7.105307,9.190609,-7.116829,9.200278,-7.129853,9.207797,-7.139520,9.219318,-7.144602,9.223582,-7.147923,9.229333,-7.152191,9.234420,-7.154459,9.240653,-7.161980,9.253678,-7.164592,9.268493,-7.169736,9.282625,
-7.172800,9.300000,-7.172800,12.000000,-7.172028,12.008822,-7.170310,12.018564,-7.168415,12.018230,-7.167328,12.024398,-7.169223,12.024732,-7.167505,12.034474,-7.156391,12.058307,-7.146722,12.069829,-7.139203,12.082853,-7.127682,12.092520,-7.123418,12.097602,-7.117667,12.100923,-7.112580,12.105191,-7.106347,12.107459,-7.093322,12.114980,-7.078507,12.117592,-7.064375,12.122736,-7.047000,12.125800,
-1.747000,12.125800,-1.738178,12.125028,-1.738178,12.125028,$1*%
G04 Aperture macros list end*
%ADD10RoundRect,0.050800X-0.725000X-0.225000X0.725000X-0.225000X0.725000X0.225000X-0.725000X0.225000X0*%
%ADD11RoundRect,0.050800X-0.625000X0.750000X-0.625000X-0.750000X0.625000X-0.750000X0.625000X0.750000X0*%
%ADD12RoundRect,0.050800X0.625000X-0.750000X0.625000X0.750000X-0.625000X0.750000X-0.625000X-0.750000X0*%
%ADD13RoundRect,0.050800X-0.750000X-0.625000X0.750000X-0.625000X0.750000X0.625000X-0.750000X0.625000X0*%
%ADD14RoundRect,0.050800X0.750000X0.625000X-0.750000X0.625000X-0.750000X-0.625000X0.750000X-0.625000X0*%
%ADD15RoundRect,0.050800X-0.650000X0.750000X-0.650000X-0.750000X0.650000X-0.750000X0.650000X0.750000X0*%
%ADD16RoundRect,0.050800X0.750000X0.650000X-0.750000X0.650000X-0.750000X-0.650000X0.750000X-0.650000X0*%
%ADD17RoundRect,0.050800X-0.750000X-0.650000X0.750000X-0.650000X0.750000X0.650000X-0.750000X0.650000X0*%
%ADD18RoundRect,0.050800X0.650000X-0.750000X0.650000X0.750000X-0.650000X0.750000X-0.650000X-0.750000X0*%
%ADD19RoundRect,0.050800X0.530000X0.325000X-0.530000X0.325000X-0.530000X-0.325000X0.530000X-0.325000X0*%
%ADD20RoundRect,0.300800X-0.450000X0.325000X-0.450000X-0.325000X0.450000X-0.325000X0.450000X0.325000X0*%
%ADD21RoundRect,0.050800X-1.050000X1.050000X-1.050000X-1.050000X1.050000X-1.050000X1.050000X1.050000X0*%
%ADD22C,2.201600*%
%ADD23RoundRect,0.050800X-0.600000X-1.350000X0.600000X-1.350000X0.600000X1.350000X-0.600000X1.350000X0*%
%ADD24C,2.463800*%
%ADD25C,2.654300*%
%ADD26RoundRect,0.300800X-0.625000X0.350000X-0.625000X-0.350000X0.625000X-0.350000X0.625000X0.350000X0*%
%ADD27O,1.851600X1.301600*%
%ADD28RoundRect,0.294550X-0.456250X0.243750X-0.456250X-0.243750X0.456250X-0.243750X0.456250X0.243750X0*%
%ADD29RoundRect,0.294550X0.243750X0.456250X-0.243750X0.456250X-0.243750X-0.456250X0.243750X-0.456250X0*%
%ADD30C,5.701600*%
%ADD31C,2.101600*%
%ADD32O,1.625600X1.879600*%
%ADD33O,1.879600X1.625600*%
%ADD34FreePoly0,90.000000*%
G04 APERTURE END LIST*
D10*
%TO.C,U2*%
X125320000Y-88515000D03*
X125320000Y-89165000D03*
X125320000Y-89815000D03*
X125320000Y-90465000D03*
X125320000Y-91115000D03*
X125320000Y-91765000D03*
X125320000Y-92415000D03*
X125320000Y-93065000D03*
X125320000Y-93715000D03*
X125320000Y-94365000D03*
X131220000Y-94365000D03*
X131220000Y-93715000D03*
X131220000Y-93065000D03*
X131220000Y-92415000D03*
X131220000Y-91765000D03*
X131220000Y-91115000D03*
X131220000Y-90465000D03*
X131220000Y-89815000D03*
X131220000Y-89165000D03*
X131220000Y-88515000D03*
%TD*%
D11*
%TO.C,C4*%
X120650000Y-92730000D03*
X120650000Y-95230000D03*
%TD*%
%TO.C,C5*%
X143510000Y-76220000D03*
X143510000Y-78720000D03*
%TD*%
D12*
%TO.C,C6*%
X142240000Y-68560000D03*
X142240000Y-66060000D03*
%TD*%
%TO.C,C7*%
X139700000Y-67290000D03*
X139700000Y-64790000D03*
%TD*%
%TO.C,C8*%
X138176000Y-102676000D03*
X138176000Y-100176000D03*
%TD*%
%TO.C,C9*%
X154940000Y-68560000D03*
X154940000Y-66060000D03*
%TD*%
%TO.C,C10*%
X135636000Y-103946000D03*
X135636000Y-101446000D03*
%TD*%
D13*
%TO.C,C11*%
X150408000Y-100584000D03*
X152908000Y-100584000D03*
%TD*%
D14*
%TO.C,C12*%
X123170000Y-85090000D03*
X120670000Y-85090000D03*
%TD*%
D13*
%TO.C,C13*%
X130830000Y-86360000D03*
X133330000Y-86360000D03*
%TD*%
D14*
%TO.C,C14*%
X123170000Y-87630000D03*
X120670000Y-87630000D03*
%TD*%
D13*
%TO.C,C15*%
X130810000Y-83820000D03*
X133310000Y-83820000D03*
%TD*%
D11*
%TO.C,C16*%
X123190000Y-95250000D03*
X123190000Y-97750000D03*
%TD*%
D15*
%TO.C,R1*%
X112248000Y-87630000D03*
X112248000Y-90330000D03*
%TD*%
%TO.C,R2*%
X112248000Y-92630000D03*
X112248000Y-95330000D03*
%TD*%
D16*
%TO.C,R3*%
X119460000Y-67310000D03*
X116760000Y-67310000D03*
%TD*%
D15*
%TO.C,R4*%
X119380000Y-62230000D03*
X119380000Y-64930000D03*
%TD*%
D17*
%TO.C,R5*%
X123110000Y-67310000D03*
X125810000Y-67310000D03*
%TD*%
%TO.C,R6*%
X137000000Y-88900000D03*
X139700000Y-88900000D03*
%TD*%
%TO.C,R7*%
X137080000Y-86360000D03*
X139780000Y-86360000D03*
%TD*%
%TO.C,R8*%
X137000000Y-83820000D03*
X139700000Y-83820000D03*
%TD*%
D18*
%TO.C,R9*%
X146050000Y-68660000D03*
X146050000Y-65960000D03*
%TD*%
%TO.C,R10*%
X141986000Y-102696000D03*
X141986000Y-99996000D03*
%TD*%
D17*
%TO.C,R11*%
X145970000Y-63500000D03*
X148670000Y-63500000D03*
%TD*%
%TO.C,R12*%
X141906000Y-97108000D03*
X144606000Y-97108000D03*
%TD*%
D15*
%TO.C,R13*%
X124968000Y-72357000D03*
X124968000Y-75057000D03*
%TD*%
D17*
%TO.C,R14*%
X128110000Y-76200000D03*
X130810000Y-76200000D03*
%TD*%
%TO.C,R15*%
X128110000Y-72390000D03*
X130810000Y-72390000D03*
%TD*%
%TO.C,R16*%
X125650000Y-97790000D03*
X128350000Y-97790000D03*
%TD*%
%TO.C,R17*%
X134540000Y-63500000D03*
X137240000Y-63500000D03*
%TD*%
%TO.C,R18*%
X137000000Y-106760000D03*
X139700000Y-106760000D03*
%TD*%
D19*
%TO.C,U4*%
X152230000Y-68260000D03*
X152230000Y-67310000D03*
X152230000Y-66360000D03*
X150030000Y-66360000D03*
X150030000Y-68260000D03*
%TD*%
%TO.C,U5*%
X147066000Y-101360000D03*
X147066000Y-100410000D03*
X147066000Y-99460000D03*
X144866000Y-99460000D03*
X144866000Y-101360000D03*
%TD*%
D20*
%TO.C,C1*%
X115570000Y-92955000D03*
X115570000Y-95005000D03*
%TD*%
D13*
%TO.C,C2*%
X112268000Y-97790000D03*
X114768000Y-97790000D03*
%TD*%
%TO.C,C3*%
X114340000Y-87630000D03*
X116840000Y-87630000D03*
%TD*%
%TO.C,FB1*%
X146090000Y-76200000D03*
X148590000Y-76200000D03*
%TD*%
D21*
%TO.C,J3*%
X153670000Y-76200000D03*
D22*
X153670000Y-78740000D03*
%TD*%
D23*
%TO.C,U3*%
X124460000Y-100760000D03*
X116840000Y-100760000D03*
X124460000Y-110060000D03*
X116840000Y-110060000D03*
%TD*%
D24*
%TO.C,J1*%
X126492000Y-59182000D03*
D25*
X123952000Y-56642000D03*
X129032000Y-56642000D03*
X129032000Y-61722000D03*
X123952000Y-61722000D03*
%TD*%
D26*
%TO.C,J2*%
X153924000Y-84582000D03*
D27*
X153924000Y-86582000D03*
X153924000Y-88582000D03*
X153924000Y-90582000D03*
%TD*%
D15*
%TO.C,R19*%
X135890000Y-71040000D03*
X135890000Y-73740000D03*
%TD*%
D16*
%TO.C,R20*%
X131986000Y-103966000D03*
X129286000Y-103966000D03*
%TD*%
D28*
%TO.C,D1*%
X135890000Y-66372500D03*
X135890000Y-68247500D03*
%TD*%
D29*
%TO.C,D2*%
X134620000Y-106760000D03*
X132745000Y-106760000D03*
%TD*%
D30*
%TO.C,H1*%
X154432000Y-57150000D03*
%TD*%
%TO.C,H2*%
X107950000Y-107696000D03*
%TD*%
%TO.C,H3*%
X107950000Y-57150000D03*
%TD*%
%TO.C,H4*%
X154432000Y-107696000D03*
%TD*%
D31*
%TO.C,CLK1*%
X145796000Y-92710000D03*
%TD*%
%TO.C,5V0*%
X139954000Y-72136000D03*
%TD*%
%TO.C,GND1*%
X139192000Y-78994000D03*
%TD*%
%TO.C,FoLD1*%
X132080000Y-97790000D03*
%TD*%
%TO.C,LE1*%
X145796000Y-86360000D03*
%TD*%
D32*
%TO.C,U1*%
X115189000Y-83566000D03*
X116967000Y-70866000D03*
D33*
X109728000Y-75565000D03*
X109728000Y-80645000D03*
X122428000Y-80899000D03*
X109728000Y-78105000D03*
D32*
X112649000Y-83566000D03*
X114427000Y-70866000D03*
D33*
X109728000Y-73025000D03*
D34*
X122428000Y-75819000D03*
D33*
X122428000Y-78359000D03*
D32*
X120269000Y-83566000D03*
X119507000Y-70866000D03*
X117729000Y-83566000D03*
D33*
X122428000Y-73279000D03*
D32*
X111887000Y-70866000D03*
%TD*%
D31*
%TO.C,VCont1*%
X130556000Y-109982000D03*
%TD*%
%TO.C,D3*%
X145796000Y-89408000D03*
%TD*%
%TO.C,3V0*%
X134874000Y-109982000D03*
%TD*%
M02*
